<?xml version="1.0" encoding="UTF-8" standalone="no"?>
<svg
   xmlns:dc="http://purl.org/dc/elements/1.1/"
   xmlns:cc="http://creativecommons.org/ns#"
   xmlns:rdf="http://www.w3.org/1999/02/22-rdf-syntax-ns#"
   xmlns:svg="http://www.w3.org/2000/svg"
   xmlns="http://www.w3.org/2000/svg"
   xmlns:sodipodi="http://sodipodi.sourceforge.net/DTD/sodipodi-0.dtd"
   xmlns:inkscape="http://www.inkscape.org/namespaces/inkscape"
   width="1600"
   height="720"
   viewBox="0 0 1600 720"
   id="svg3413"
   version="1.1"
   inkscape:version="0.91 r13725"
   sodipodi:docname="see.svg">
  <metadata
     id="metadata3450">
    <rdf:RDF>
      <cc:Work
         rdf:about="">
        <dc:format>image/svg+xml</dc:format>
        <dc:type
           rdf:resource="http://purl.org/dc/dcmitype/StillImage" />
        <dc:title></dc:title>
      </cc:Work>
    </rdf:RDF>
  </metadata>
  <sodipodi:namedview
     pagecolor="#ffffff"
     bordercolor="#666666"
     borderopacity="1"
     objecttolerance="10"
     gridtolerance="10"
     guidetolerance="10"
     inkscape:pageopacity="0"
     inkscape:pageshadow="2"
     inkscape:window-width="1920"
     inkscape:window-height="1056"
     id="namedview3448"
     showgrid="false"
     inkscape:zoom="0.76986251"
     inkscape:cx="821.91037"
     inkscape:cy="477.05622"
     inkscape:window-x="0"
     inkscape:window-y="24"
     inkscape:window-maximized="1"
     inkscape:current-layer="svg3413" />
  <defs
     id="defs3415">
    <linearGradient
       id="a"
       x1="50%"
       x2="50%"
       y1="0%"
       y2="100%">
      <stop
         offset="0%"
         stop-color="#FF7F44"
         id="stop3418" />
      <stop
         offset="100%"
         stop-color="#EE514B"
         id="stop3420" />
    </linearGradient>
    <path
       id="b"
       d="M114.960237,0 L1618.03976,0 C1618.03976,0 1876.9207,418.271277 1618.03976,506.271277 C1359.15883,594.271277 1289,506 1117.01325,544.058511 C945.026509,582.117021 874.328539,725.845745 615.986746,661.845745 C357.644952,597.845745 373.323297,827.632979 114.960237,827.632979 C-143.402823,827.632979 114.960237,0 114.960237,0 Z"
       style="fill:#000000" />
  </defs>
  <path
     style="opacity:1;fill:#2e4db7;fill-opacity:1;fill-rule:nonzero"
     d="m 1567.3763,684.99437 c -32.5009,-3.2027 -71.3995,-12.44539 -97.4139,-23.14644 -28.5912,-11.76102 -43.6162,-20.56193 -103.0184,-60.34377 -69.4609,-46.51816 -95.7221,-57.11069 -151.0271,-60.91729 -30.5339,-2.10161 -51.984,-0.41583 -99.5531,7.82404 -56.6379,9.81067 -68.1251,11.11894 -105.7186,12.03999 -50.83939,1.24559 -81.12673,-2.23279 -124.79657,-14.33234 -26.41659,-7.31922 -51.51419,-17.02374 -106.31895,-41.1106 -84.00098,-36.91867 -111.37522,-46.74151 -151.02085,-54.19171 -33.13084,-6.22595 -54.30967,-8.09986 -91.01457,-8.05299 -34.55577,0.0441 -49.42388,0.79204 -111.28439,5.59818 -92.6811,7.20069 -150.85083,3.28929 -234.53326,-15.77026 C 113.0682,414.6873 80.871994,399.97148 54.601996,369.93898 39.850672,353.07488 31.8751,337.14074 25.754978,312.30642 21.823645,296.35382 22.259505,250.12573 26.543657,228.65757 39.62721,163.09496 74.598196,84.82517 125.21919,7.8084314 l 8.92975,-13.5861054 737.0083,0.3895878 737.00826,0.3895858 10.2727,30.2743644 c 23.7585,70.019611 54.5717,178.418886 69.2867,243.747516 42.7328,189.71415 42.7146,317.0008 -0.054,377.64069 -11.8758,16.83806 -30.8323,30.29761 -50.7963,36.06634 -10.9743,3.17116 -48.0395,4.37858 -69.4981,2.26396 z"
     id="path4399"
     inkscape:connector-curvature="0" />
</svg>
